<mxfile host="app.diagrams.net" modified="2021-05-04T14:17:15.245Z" agent="5.0 (Windows NT 10.0; Win64; x64) AppleWebKit/537.36 (KHTML, like Gecko) Chrome/90.0.4430.93 Safari/537.36" etag="iM_HcXP0s3lvG8yZes74" version="14.6.9" type="github">
  <diagram id="Qk6Y1EAQtxzli1bZzWKa" name="Page-1">
    <mxGraphModel dx="1422" dy="762" grid="1" gridSize="10" guides="1" tooltips="1" connect="1" arrows="1" fold="1" page="1" pageScale="1" pageWidth="850" pageHeight="1100" math="0" shadow="0">
      <root>
        <mxCell id="0" />
        <mxCell id="1" parent="0" />
        <mxCell id="FGj7iPFyo-JvgBV_S93t-51" style="edgeStyle=orthogonalEdgeStyle;rounded=0;orthogonalLoop=1;jettySize=auto;html=1;strokeColor=#FFFFFF;" parent="1" source="FGj7iPFyo-JvgBV_S93t-20" target="FGj7iPFyo-JvgBV_S93t-21" edge="1">
          <mxGeometry relative="1" as="geometry">
            <mxPoint x="320" y="432.1600000000001" as="targetPoint" />
            <Array as="points">
              <mxPoint x="330" y="432" />
              <mxPoint x="330" y="432" />
            </Array>
          </mxGeometry>
        </mxCell>
        <mxCell id="FGj7iPFyo-JvgBV_S93t-20" value="" style="rounded=1;whiteSpace=wrap;html=1;fillColor=#b1ddf0;strokeColor=#10739e;" parent="1" vertex="1">
          <mxGeometry x="510" y="273" width="290" height="318.32" as="geometry" />
        </mxCell>
        <mxCell id="FGj7iPFyo-JvgBV_S93t-21" value="" style="rounded=1;whiteSpace=wrap;html=1;fillColor=#b1ddf0;strokeColor=#10739e;" parent="1" vertex="1">
          <mxGeometry x="25" y="280" width="280" height="318.32" as="geometry" />
        </mxCell>
        <mxCell id="FGj7iPFyo-JvgBV_S93t-49" style="edgeStyle=orthogonalEdgeStyle;rounded=0;orthogonalLoop=1;jettySize=auto;html=1;" parent="1" source="FGj7iPFyo-JvgBV_S93t-26" target="FGj7iPFyo-JvgBV_S93t-46" edge="1">
          <mxGeometry relative="1" as="geometry">
            <Array as="points">
              <mxPoint x="665" y="494.32" />
              <mxPoint x="741" y="494.32" />
            </Array>
          </mxGeometry>
        </mxCell>
        <mxCell id="FGj7iPFyo-JvgBV_S93t-50" style="edgeStyle=orthogonalEdgeStyle;rounded=0;orthogonalLoop=1;jettySize=auto;html=1;" parent="1" source="FGj7iPFyo-JvgBV_S93t-26" target="FGj7iPFyo-JvgBV_S93t-45" edge="1">
          <mxGeometry relative="1" as="geometry">
            <Array as="points">
              <mxPoint x="665" y="494" />
              <mxPoint x="596" y="494" />
            </Array>
          </mxGeometry>
        </mxCell>
        <mxCell id="FGj7iPFyo-JvgBV_S93t-26" value="Amazon EC2 - Ubuntu 20.4&lt;br&gt;" style="outlineConnect=0;fontColor=#232F3E;gradientColor=none;strokeColor=#ffffff;fillColor=#232F3E;dashed=0;verticalLabelPosition=middle;verticalAlign=bottom;align=center;html=1;whiteSpace=wrap;fontSize=10;fontStyle=1;spacing=3;shape=mxgraph.aws4.productIcon;prIcon=mxgraph.aws4.ec2;" parent="1" vertex="1">
          <mxGeometry x="624.8" y="309.49" width="90" height="123.1" as="geometry" />
        </mxCell>
        <mxCell id="FGj7iPFyo-JvgBV_S93t-27" value="" style="shape=image;html=1;verticalAlign=top;verticalLabelPosition=bottom;labelBackgroundColor=#ffffff;imageAspect=0;aspect=fixed;image=https://cdn4.iconfinder.com/data/icons/logos-and-brands/512/348_Ubuntu_logo-128.png" parent="1" vertex="1">
          <mxGeometry x="654.87" y="339.99999999999994" width="29.87" height="29.87" as="geometry" />
        </mxCell>
        <mxCell id="FGj7iPFyo-JvgBV_S93t-30" style="edgeStyle=orthogonalEdgeStyle;rounded=0;orthogonalLoop=1;jettySize=auto;html=1;strokeColor=#FFFFFF;" parent="1" source="FGj7iPFyo-JvgBV_S93t-33" edge="1">
          <mxGeometry relative="1" as="geometry">
            <mxPoint x="710" y="230" as="targetPoint" />
            <Array as="points">
              <mxPoint x="710" y="80" />
            </Array>
          </mxGeometry>
        </mxCell>
        <mxCell id="FGj7iPFyo-JvgBV_S93t-31" style="edgeStyle=orthogonalEdgeStyle;rounded=0;orthogonalLoop=1;jettySize=auto;html=1;strokeColor=#FFFFFF;" parent="1" source="FGj7iPFyo-JvgBV_S93t-33" edge="1">
          <mxGeometry relative="1" as="geometry">
            <mxPoint x="150" y="200" as="targetPoint" />
          </mxGeometry>
        </mxCell>
        <mxCell id="FGj7iPFyo-JvgBV_S93t-33" value="&lt;font style=&quot;font-size: 23px&quot;&gt;&lt;b&gt;&amp;nbsp; Sonatype Nexus Repository Manager&lt;br&gt;&lt;/b&gt;&lt;b&gt;envirement&lt;/b&gt;&lt;b&gt;&lt;br&gt;&lt;/b&gt;&lt;/font&gt;" style="rounded=1;whiteSpace=wrap;html=1;strokeColor=#6c8ebf;fillColor=#B1DDF0;" parent="1" vertex="1">
          <mxGeometry x="265" y="20" width="278.5" height="120" as="geometry" />
        </mxCell>
        <mxCell id="FGj7iPFyo-JvgBV_S93t-35" value="&lt;font&gt;&lt;span style=&quot;font-size: 14px&quot;&gt;https://reg.radware.com:8443/&lt;/span&gt;&lt;br&gt;&lt;/font&gt;" style="rounded=1;whiteSpace=wrap;html=1;" parent="1" vertex="1">
          <mxGeometry x="65" y="231.5" width="200" height="78.5" as="geometry" />
        </mxCell>
        <mxCell id="FGj7iPFyo-JvgBV_S93t-37" value="&lt;font style=&quot;font-size: 14px&quot;&gt;EC2 instance with 2 EBS 20+400&lt;br&gt;&lt;/font&gt;" style="rounded=1;whiteSpace=wrap;html=1;" parent="1" vertex="1">
          <mxGeometry x="536.5" y="231.5" width="230" height="63.1" as="geometry" />
        </mxCell>
        <mxCell id="FGj7iPFyo-JvgBV_S93t-38" value="" style="shape=image;verticalLabelPosition=bottom;labelBackgroundColor=#ffffff;verticalAlign=top;aspect=fixed;imageAspect=0;image=data:image/png,iVBORw0KGgoAAAANSUhEUgAAACwAAAAqCAYAAADI3bkcAAADhElEQVRYCe2Yz0sbQRTH/Vt2dje7+VFtaAiRVGoETVuLLa3gIbYUMS1qbGmwB4/25KUQhVahBw9SKNIcaj0LHgQ9eNGLehLxoqiIqPjzW960k2432WzWrFQhDzYzO2He+/DezJt5WyVJEm7SU3WTYIm1AnzVEat4uOJhUxZzdUn4fD5kMhkkk0nIDyJQ+x5D8qqupk3XgDs7O7G+vg6S3t5eyI9qof9MQ/vaDTkRg8SYK+BlAzc3N2N+fp6Dih8jMEFz8M8dYA13yoa+NHAwGMTY2BjOzs4EZ64tBMzBJ9NQP7SBBX2XBncMrCgK+vv7sbOzkwMUnYODA76GdV2HJDO+FPRvKe5h4Wnu7e9voHY/hKTKjsEdAScSCSwvLwu+XHtxcYGpqSlEo9E8ABbQ+ObTf7zLBx97DeXp3bw5xVJjScD19fUcKEdo6CwuLqK1tdXWKKu7DU/mRR40edzz8TlYbbWtjpLuEsPDwzg+PjYg/u5ubm6ir68PsuwgrEyC/KwO2nhXHrj2JQkpoNlC23p4e3v7H9iTkxOMjo4iEAjYKrcKLdNUKMk49OxbaIb13NTUZKvTEfDCwgJisZitUitQ8zgL+cFqvAiHw5iYmMDW1patbkfAdIqZjZb7TgfO/v4+jyJF006f+8C6CubXIHkUbpxFa8B06+OZnCDkvwB7hl/yDaW+fwLRL5YBrg2wPvnnSB7vAgvfsgz1tQHWPnWAhewzybUBVl7dt/SqcWNVgI0HB3nD6J1CfbHRKh7+Uyq5nodvnIeVtnv8niCXWF1c6aYbGhqyXcOF1nWxMdIpxPWT7ujoCCMjI/D7/WWDe71eDA4OgqoUIa4A0w3KLBsbG0ilUpeGprmkwyyu3NYaGhowPT1t1s3f5+bmQFVzsZAb/2tsbMTMzExBXbOzs4jH47a6bLOEMNje3o7V1dU8Y+fn58hmswiFQpbGilXYa2tr6OnpsZwr7Iu2ZGCaoKoqBgYGcvdXI/3e3h5fkx6PJ2e8WIV9eHj4t8I2fY4ScIVaR8BCQSQS4V6latksKysroGjQQ32z0ByKCOkQ+py0lwIWBlpaWkBlU6mytLRUUoUt9BdqywImhYwxpNNpUBVtJbu7u3wp0RIpBOFkrGxgYYxyM51axk8Cp6en/HNWdXVp3xyErmKta8DCiEiDlAqpL8bdal0HdgvMSk8F2Mozbo3/AljMtitmhge8AAAAAElFTkSuQmCC;" parent="1" vertex="1">
          <mxGeometry x="150" y="360" width="76.05" height="72.59" as="geometry" />
        </mxCell>
        <mxCell id="FGj7iPFyo-JvgBV_S93t-39" value="" style="strokeColor=#dddddd;shadow=1;strokeWidth=1;rounded=1;absoluteArcSize=1;arcSize=2;" parent="1" vertex="1">
          <mxGeometry x="85" y="438.44" width="180" height="48.81" as="geometry" />
        </mxCell>
        <mxCell id="FGj7iPFyo-JvgBV_S93t-40" value="&lt;div style=&quot;text-align: center&quot;&gt;&lt;span&gt;Web&lt;/span&gt;&lt;/div&gt;&lt;div style=&quot;text-align: center&quot;&gt;&lt;span&gt;Nexus-&lt;/span&gt;&lt;span style=&quot;text-align: center&quot;&gt;OSS 3.28.0-01&lt;/span&gt;&lt;/div&gt;" style="dashed=0;connectable=0;html=1;fillColor=#757575;strokeColor=none;shape=mxgraph.gcp2.image_services;part=1;labelPosition=right;verticalLabelPosition=middle;align=left;verticalAlign=middle;spacingLeft=5;fontSize=12;" parent="FGj7iPFyo-JvgBV_S93t-39" vertex="1">
          <mxGeometry y="0.5" width="32" height="32" relative="1" as="geometry">
            <mxPoint x="5" y="-16" as="offset" />
          </mxGeometry>
        </mxCell>
        <mxCell id="FGj7iPFyo-JvgBV_S93t-41" value="" style="verticalLabelPosition=bottom;html=1;verticalAlign=top;align=center;points=[[0,0.5,0],[0.125,0.25,0],[0.25,0,0],[0.5,0,0],[0.75,0,0],[0.875,0.25,0],[1,0.5,0],[0.875,0.75,0],[0.75,1,0],[0.5,1,0],[0.125,0.75,0]];pointerEvents=1;shape=mxgraph.cisco_safe.compositeIcon;bgIcon=mxgraph.cisco_safe.design.blank_device;resIcon=mxgraph.cisco_safe.design.radware_2;" parent="1" vertex="1">
          <mxGeometry x="130.75" y="207.1" width="50" height="45" as="geometry" />
        </mxCell>
        <mxCell id="FGj7iPFyo-JvgBV_S93t-43" value="" style="dashed=0;outlineConnect=0;html=1;align=center;labelPosition=center;verticalLabelPosition=bottom;verticalAlign=top;shape=mxgraph.weblogos.apache;fillColor=#3399FF;" parent="1" vertex="1">
          <mxGeometry x="230" y="337.53000000000003" width="42.6" height="85.2" as="geometry" />
        </mxCell>
        <mxCell id="FGj7iPFyo-JvgBV_S93t-45" value="" style="verticalLabelPosition=bottom;html=1;verticalAlign=top;strokeWidth=1;align=center;outlineConnect=0;dashed=0;outlineConnect=0;shape=mxgraph.aws3d.ebs2;fillColor=#ECECEC;strokeColor=#5E5E5E;aspect=fixed;" parent="1" vertex="1">
          <mxGeometry x="550" y="511.32000000000005" width="92" height="60" as="geometry" />
        </mxCell>
        <mxCell id="FGj7iPFyo-JvgBV_S93t-46" value="" style="verticalLabelPosition=bottom;html=1;verticalAlign=top;strokeWidth=1;align=center;outlineConnect=0;dashed=0;outlineConnect=0;shape=mxgraph.aws3d.ebs2;fillColor=#ECECEC;strokeColor=#5E5E5E;aspect=fixed;" parent="1" vertex="1">
          <mxGeometry x="695" y="511.32000000000005" width="92" height="60" as="geometry" />
        </mxCell>
        <mxCell id="FGj7iPFyo-JvgBV_S93t-52" value="" style="shadow=0;dashed=0;html=1;strokeColor=none;fillColor=#4495D1;labelPosition=center;verticalLabelPosition=bottom;verticalAlign=top;align=center;outlineConnect=0;shape=mxgraph.veeam.snapshot;" parent="1" vertex="1">
          <mxGeometry x="642" y="440" width="55.6" height="48.8" as="geometry" />
        </mxCell>
        <mxCell id="FGj7iPFyo-JvgBV_S93t-53" value="Snapshot" style="text;html=1;strokeColor=none;fillColor=none;align=center;verticalAlign=middle;whiteSpace=wrap;rounded=0;" parent="1" vertex="1">
          <mxGeometry x="580" y="452.85" width="44.8" height="20" as="geometry" />
        </mxCell>
      </root>
    </mxGraphModel>
  </diagram>
</mxfile>
